<?xml version="1.0" encoding="utf-8"?>
<!-- Generator: Adobe Illustrator 28.0.0, SVG Export Plug-In . SVG Version: 6.00 Build 0)  -->
<svg version="1.1" id="_1-Email" xmlns="http://www.w3.org/2000/svg" xmlns:xlink="http://www.w3.org/1999/xlink" x="0px" y="0px"
	 viewBox="0 0 32 32" style="enable-background:new 0 0 32 32;" xml:space="preserve">
<style type="text/css">
	.st0{fill:#7FC357;}
</style>
<g>
	<path class="st0" d="M29,4H3C1.34,4,0,5.34,0,7v18c0,1.66,1.34,3,3,3h26c1.66,0,3-1.34,3-3V7C32,5.34,30.66,4,29,4z M28.28,6
		L16,14.77L3.72,6H28.28z M30,25c0,0.55-0.45,1-1,1H3c-0.55,0-1-0.45-1-1V7.23l13.42,9.58c0.35,0.25,0.81,0.25,1.16,0L30,7.23V25z"
		/>
</g>
</svg>
