<?xml version="1.0" encoding="utf-8"?>
<!-- Generator: Adobe Illustrator 28.0.0, SVG Export Plug-In . SVG Version: 6.00 Build 0)  -->
<svg version="1.1" id="Layer_1" xmlns="http://www.w3.org/2000/svg" xmlns:xlink="http://www.w3.org/1999/xlink" x="0px" y="0px"
	 viewBox="0 0 48 48" style="enable-background:new 0 0 48 48;" xml:space="preserve">
<style type="text/css">
	.st0{fill:#7FC357;}
</style>
<g>
	<path class="st0" d="M24,46.54c-12.24,0-22.16-9.92-22.16-22.16S11.76,2.22,24,2.22s22.16,9.92,22.16,22.16
		C46.15,36.61,36.23,46.53,24,46.54z M24,4.23c-11.13,0-20.16,9.03-20.16,20.16S12.87,44.55,24,44.55s20.16-9.03,20.16-20.16l0-0.01
		C44.14,13.25,35.13,4.24,24,4.23z"/>
	<rect x="23" y="2.46" class="st0" width="2" height="43.08"/>
	<rect x="2.84" y="23.38" class="st0" width="42.31" height="2"/>
	<path class="st0" d="M24.71,46.24l-1.42-1.4C30.76,37.26,34.44,29.92,34.2,23C34,16.56,30.32,10.15,23.34,4l1.32-1.5
		C32.08,9,36,15.92,36.2,23C36.45,30.42,32.59,38.25,24.71,46.24z"/>
	<path class="st0" d="M23.29,46.24C15.41,38.25,11.55,30.42,11.8,23C12,15.92,15.92,9,23.34,2.48L24.66,4
		C17.68,10.15,14,16.56,13.8,23c-0.24,6.9,3.44,14.24,10.91,21.82L23.29,46.24z"/>
	<path class="st0" d="M24,15.07c-5.54-0.08-10.94-1.69-15.63-4.64l1-1.72c9.8,5.86,19.32,5.86,29.11,0l1,1.72
		C34.84,13.36,29.49,14.96,24,15.07z"/>
	<path class="st0" d="M9.4,40.05l-1-1.71c10.34-6.18,20.83-6.18,31.17,0l-1,1.71C28.72,34.2,19.2,34.2,9.4,40.05z"/>
</g>
</svg>
