<?xml version="1.0" encoding="utf-8"?>
<!-- Generator: Adobe Illustrator 28.0.0, SVG Export Plug-In . SVG Version: 6.00 Build 0)  -->
<svg version="1.1" id="Layer_1" xmlns="http://www.w3.org/2000/svg" xmlns:xlink="http://www.w3.org/1999/xlink" x="0px" y="0px"
	 viewBox="0 0 214.77 214.77" style="enable-background:new 0 0 214.77 214.77;" xml:space="preserve">
<style type="text/css">
	.st0{fill:#7FC357;stroke:#7FC357;stroke-width:7.3;stroke-miterlimit:10;}
</style>
<path class="st0" d="M107.52,205.29c-5.56,0-10.71-3.57-14.29-10.32c-44.05-81.35-44.44-82.14-44.44-82.54
	c-6.35-10.12-9.72-22.42-9.72-34.92c0-37.9,30.75-68.65,68.65-68.65s68.65,30.75,68.65,68.65c0,12.9-3.57,25.4-10.32,36.11
	c0,0-2.38,4.76-44.05,81.35C118.23,201.72,113.27,205.29,107.52,205.29z M107.71,16.8C74.18,16.8,47,43.99,47,77.52
	c0,11.11,2.98,22.02,8.93,31.55c1.19,2.58,32.54,60.32,44.44,82.34c4.17,7.74,10.32,7.74,14.68,0
	c14.88-27.38,43.05-79.56,44.05-81.35c6.15-9.92,9.33-21.03,9.33-32.34C168.23,43.99,141.05,16.8,107.71,16.8z"/>
<path class="st0" d="M107.71,118.04c-19.69,0-35.48-15.98-35.48-35.48s15.79-35.67,35.48-35.67s35.48,15.98,35.48,35.48
	S127.22,118.04,107.71,118.04z M107.71,54.32c-15.42,0-28.05,12.63-28.05,28.05s12.63,28.05,28.05,28.05s28.05-12.63,28.05-28.05
	S123.13,54.32,107.71,54.32z"/>
</svg>
