<?xml version="1.0" encoding="utf-8"?>
<!-- Generator: Adobe Illustrator 28.0.0, SVG Export Plug-In . SVG Version: 6.00 Build 0)  -->
<svg version="1.1" id="Layer_1" xmlns="http://www.w3.org/2000/svg" xmlns:xlink="http://www.w3.org/1999/xlink" x="0px" y="0px"
	 viewBox="0 0 24 24" style="enable-background:new 0 0 24 24;" xml:space="preserve">
<style type="text/css">
	.st0{fill:#7FC357;}
</style>
<g>
	<path class="st0" d="M21.38,17.75c0.82,0.82,0.82,2.16-0.01,2.98c-0.15,0.15-0.33,0.28-0.52,0.38c-1.68,0.9-3.64,1.13-5.48,0.64
		C10.5,20.52,3.48,13.5,2.25,8.61c-0.48-1.84-0.26-3.8,0.64-5.48C3.43,2.1,4.7,1.7,5.73,2.24c0.19,0.1,0.36,0.23,0.52,0.38L8.33,4.7
		c0.62,0.61,0.79,1.53,0.44,2.33C8.59,7.46,8.33,7.86,8,8.2c-2.38,2.38,5.42,10.19,7.8,7.8c0.34-0.33,0.74-0.59,1.17-0.78
		c0.79-0.35,1.72-0.17,2.33,0.44L21.38,17.75z"/>
</g>
</svg>
